<?xml version="1.0" encoding="utf-8"?>
<!-- Generator: Adobe Illustrator 16.0.0, SVG Export Plug-In . SVG Version: 6.00 Build 0)  -->
<!DOCTYPE svg PUBLIC "-//W3C//DTD SVG 1.1//EN" "http://www.w3.org/Graphics/SVG/1.1/DTD/svg11.dtd">
<svg version="1.1" id="Layer_1" xmlns="http://www.w3.org/2000/svg" xmlns:xlink="http://www.w3.org/1999/xlink" x="0px" y="0px"
	 width="86px" height="23px" viewBox="0 0 86 23" enable-background="new 0 0 86 23" xml:space="preserve">
<g>
	<rect x="21.31" fill="#FFFFFF" width="3.77" height="22.55"/>
	<path fill="#FFFFFF" d="M27.11,18.17c0-1.33,0.21-2.61,0.85-3.2c1.29-1.25,4.38-1.51,15.51-1.51v-0.38c0-1.9-0.85-2.43-4.89-2.43
		c-3.24,0-7.48,0.36-9.07,0.68L29.08,8.6c1.77-0.36,4.68-0.71,9.6-0.71c6.62,0,8.6,1.13,8.6,4.59v10.08h-3.21l-0.5-1.78
		C41.47,21.67,37.5,23,32.96,23C29.32,23,27.11,21.87,27.11,18.17 M43.47,18.32v-2.58c-9.77,0.06-11.54,0.35-12.16,1
		c-0.26,0.3-0.29,0.89-0.29,1.51c0,1.42,0.85,1.87,3.33,1.87C37.5,20.12,41.12,19.23,43.47,18.32"/>
	<path fill="#FFFFFF" d="M58,19.53c-4.41,0-4.65-0.21-4.65-1.81v-6.05h7.98l-0.51-3.14h-7.47V4.12h-3.77v14.52
		c0,3.14,1.5,4.09,7.42,4.09c1.63,0,4.88-0.06,6.69-0.26l-0.51-3.12C61.61,19.5,58.96,19.53,58,19.53"/>
	<path fill="#FFFFFF" d="M9.65,13.84c-4.83-0.09-5.83-0.15-5.83-1.57c0-1.45,0.88-1.54,5.45-1.54c2.74,0,6.39,0.32,8.48,0.71
		l0.01-0.05l-0.46-2.87c-1.98-0.32-4.86-0.57-8-0.57C2.18,7.94,0,8.86,0,12.3c0,3.56,1.59,4.48,9.01,4.62
		c5.8,0.09,6.59,0.21,6.59,1.63c0,1.45-0.82,1.57-6.3,1.57c-2.85,0-6.14-0.29-8.12-0.57l-0.01,0.05l0.47,2.9
		c1.9,0.21,4.61,0.38,7.66,0.38c7.95,0,10.19-0.95,10.19-4.5C19.48,14.79,17.72,13.99,9.65,13.84"/>
	<path fill="#FFFFFF" d="M86,14.79c0-5.13-2.77-6.97-10.27-6.97c-8.18,0-10.83,2.37-10.83,7.65c0,5.3,2.71,7.53,11.21,7.53
		c3.55,0,6.42-0.41,8.27-0.85L83.9,19.2c-2.58,0.58-5.29,0.84-7.73,0.84c-4.95,0-6.95-0.56-7.33-3.44H86V14.79z M68.84,14.02
		c0.41-2.7,2.26-3.26,6.83-3.26c5.09,0,6.36,0.68,6.54,3.26H68.84z"/>
</g>
</svg>
